<svg width="100%" height="100%" viewBox="0 0 512.035 512.035" xmlns="http://www.w3.org/2000/svg">
  <g>
    <polygon points="308.296,76.933 435.229,203.866 470.856,168.282 343.922,41.349 			" />
    <path
      d="M485.945,26.272c-29.76-29.76-75.307-33.984-109.845-13.077l122.923,122.923
C519.907,101.6,515.726,56.054,485.945,26.272z"
    />
    <path
      d="M36.511,348.442c-2.795,2.795-4.757,6.293-5.675,10.133L0.586,485.594c-1.728,7.189,0.427,14.784,5.675,20.011
c4.032,4.032,9.493,6.251,15.083,6.251c1.643,0,3.307-0.192,4.928-0.576l127.019-30.251c3.819-0.917,7.339-2.88,10.133-5.675
L405.044,234.01L278.111,107.077L36.511,348.442z M313.759,198.106c8.341,8.341,8.341,21.824,0,30.165l-85.333,85.333
c-4.16,4.16-9.621,6.251-15.083,6.251c-5.461,0-10.923-2.091-15.083-6.251c-8.341-8.341-8.341-21.824,0-30.165l85.333-85.333
C291.935,189.765,305.418,189.765,313.759,198.106z"
    />
  </g>
</svg>