<svg
  id="kc-fast-forward"
  viewBox="0 0 448 448"
  xmlns="http://www.w3.org/2000/svg">
  <path d="m439.84 210.042-256-144c-4.928-2.752-11.008-2.72-15.904.128s-7.936 8.128-7.936 13.824v62.592l-136.16-76.544c-4.96-2.784-11.008-2.72-15.936.128-4.896 2.88-7.904 8.128-7.904 13.824v288c0 5.696 3.008 10.944 7.904 13.824 2.496 1.44 5.312 2.176 8.096 2.176 2.688 0 5.408-.672 7.84-2.048l136.16-76.544v62.592c0 5.696 3.04 10.944 7.936 13.824s10.976 2.912 15.904.128l256-144c5.024-2.848 8.16-8.16 8.16-13.952s-3.136-11.104-8.16-13.952z" />
</svg>