<?xml version="1.0" standalone="no"?>
<!DOCTYPE svg PUBLIC "-//W3C//DTD SVG 20010904//EN"
 "http://www.w3.org/TR/2001/REC-SVG-20010904/DTD/svg10.dtd">
<svg version="1.0" xmlns="http://www.w3.org/2000/svg"
 width="1200.000000pt" height="1200.000000pt" viewBox="0 0 1200.000000 1200.000000"
 preserveAspectRatio="xMidYMid meet">
<metadata>
Created by potrace 1.11, written by Peter Selinger 2001-2013
</metadata>
<g transform="translate(0.000000,1200.000000) scale(0.100000,-0.100000)"
fill="#000000" stroke="none">
<path d="M4980 11494 c-497 -33 -1134 -208 -1720 -474 -630 -285 -1287 -760
-1749 -1265 -771 -841 -1268 -1884 -1420 -2977 -36 -261 -46 -423 -46 -793 0
-471 24 -743 90 -1060 162 -769 503 -1568 914 -2140 248 -346 747 -865 1126
-1171 447 -361 1041 -676 1662 -883 610 -204 1037 -271 1730 -271 473 0 865
37 1181 111 1192 280 2255 912 3008 1787 437 508 765 1064 1008 1710 257 681
387 1401 347 1917 -27 338 -86 563 -212 804 -168 321 -418 556 -787 741 -216
108 -358 157 -572 196 -118 22 -567 31 -726 14 -315 -32 -482 -78 -704 -192
-293 -150 -547 -398 -631 -613 -20 -53 -23 -77 -23 -220 -1 -176 10 -231 65
-336 90 -170 318 -286 700 -359 486 -92 689 -167 842 -310 85 -80 122 -142
143 -241 17 -82 9 -169 -28 -294 -52 -178 -209 -444 -384 -655 -108 -129 -338
-360 -462 -463 -111 -92 -325 -244 -445 -316 -369 -221 -956 -416 -1520 -505
-509 -80 -871 -68 -1467 49 -302 60 -516 130 -777 255 -355 170 -636 375 -900
656 -213 226 -342 411 -473 679 -124 252 -193 466 -242 751 -19 112 -22 165
-22 409 -1 267 1 287 28 430 116 610 377 1096 836 1555 427 426 948 736 1605
955 565 189 974 248 1710 248 523 0 746 -20 1140 -105 403 -86 765 -185 1070
-293 475 -168 1060 -457 1588 -784 361 -223 634 -417 970 -688 263 -212 324
-254 382 -261 83 -9 185 74 185 150 0 78 -128 334 -295 588 -383 583 -978
1270 -1480 1710 -919 805 -1844 1353 -2853 1690 -534 178 -804 231 -1337 260
-167 9 -933 12 -1055 4z"/>
<path d="M4745 6716 c-101 -32 -147 -70 -213 -173 -42 -66 -62 -138 -62 -228
0 -170 75 -395 167 -496 72 -80 214 -128 323 -110 78 13 159 47 216 89 66 50
129 146 144 219 34 160 -66 502 -177 604 -44 41 -105 76 -163 93 -63 19 -179
20 -235 2z"/>
<path d="M3580 6413 c-109 -19 -236 -106 -324 -224 -45 -60 -46 -62 -46 -137
0 -160 47 -356 113 -475 45 -79 100 -130 186 -171 60 -28 75 -31 166 -31 90 0
106 3 158 28 109 54 188 157 218 283 18 78 13 228 -10 317 -66 251 -280 442
-461 410z"/>
</g>
</svg>
